<?xml version="1.0" encoding="UTF-8" standalone="no"?>

<svg
   xmlns:dc="http://purl.org/dc/elements/1.1/"
   xmlns:cc="http://creativecommons.org/ns#"
   xmlns:rdf="http://www.w3.org/1999/02/22-rdf-syntax-ns#"
   xmlns:svg="http://www.w3.org/2000/svg"
   xmlns="http://www.w3.org/2000/svg"
   xmlns:sodipodi="http://sodipodi.sourceforge.net/DTD/sodipodi-0.dtd"
   xmlns:inkscape="http://www.inkscape.org/namespaces/inkscape"
   version="1.1"
   id="svg2"
   inkscape:version="0.91 r13725"
   sodipodi:docname="Premier_League_logo.svg"
   width="71"
   height="86.21302"
   overflow="visible"
   enable-background="new 0 0 204.695 86.213"
   xml:space="preserve"
   style="overflow:visible"><metadata
     id="metadata10"><rdf:RDF><cc:Work
         rdf:about=""><dc:format>image/svg+xml</dc:format><dc:type
           rdf:resource="http://purl.org/dc/dcmitype/StillImage" /><dc:title></dc:title></cc:Work></rdf:RDF></metadata><defs
     id="defs8" /><sodipodi:namedview
     pagecolor="#ffffff"
     bordercolor="#666666"
     borderopacity="1"
     objecttolerance="10"
     gridtolerance="10"
     guidetolerance="10"
     inkscape:pageopacity="0"
     inkscape:pageshadow="2"
     inkscape:window-width="1366"
     inkscape:window-height="705"
     id="namedview6"
     showgrid="false"
     inkscape:zoom="1.4069713"
     inkscape:cx="102.3475"
     inkscape:cy="43.106499"
     inkscape:window-x="-8"
     inkscape:window-y="-8"
     inkscape:window-maximized="1"
     inkscape:current-layer="svg2"
     fit-margin-top="0"
     fit-margin-left="0"
     fit-margin-right="0"
     fit-margin-bottom="0" /><path
     id="path44_1_"
     inkscape:connector-curvature="0"
     d="m 60.78468,39.44666 c -1.88455,1.54443 -3.48225,2.4052 -3.48225,2.4052 l 0.0218,4.89541 c 1.34714,1.46649 2.67613,2.68148 3.67106,4.8954 1.88818,-3.31555 1.52507,-8.18972 -0.2106,-12.19601 m -1.53234,16.0252 c 0,0 -0.38489,-2.01909 -2.02253,-3.90357 l -3.73642,0.0886 c 0,0 -5.03636,4.22239 -8.10829,4.32156 0,0 1.6921,3.07115 2.54905,4.6758 1.68847,-0.36132 4.66235,-1.66133 5.86062,-3.02156 0,0 0.79159,2.49022 0.64271,5.43029 1.68121,-0.94932 3.99786,-3.52809 4.81486,-7.59107 m -4.81486,-8.84149 -0.007,-4.8777 c 0,0 -2.23314,-0.69782 -4.61515,-2.50084 -4.78582,0.70492 -10.58109,5.40195 -10.58109,5.40195 0,0 1.95718,3.62375 4.09954,7.53441 3.76547,0.51362 9.31382,-4.12675 11.10396,-5.55782 m 12.76338,20.31134 -3.07919,-3.32618 c -0.87873,8.99027 -5.39221,16.62385 -13.68205,21.94787 l -1.26726,-4.84936 c -7.03711,4.95917 -19.11421,8.17555 -29.48832,2.45125 1.28904,-6.4115 2.43285,-12.90801 -0.0218,-20.68683 -5.74443,8.67855 -10.828,12.07912 -10.828,12.07912 C 4.95285,68.19927 5.30143,55.44358 6.45976,51.68877 L 0,53.64056 C 0,49.35442 3.1627,40.26143 7.74518,35.15348 L 3.711,34.52296 l -0.004,0 C 6.4485,29.05725 10.54077,24.34603 15.54808,20.80731 l 0.007,-0.004 c -1.50328,2.31664 -1.52507,8.03385 2.87948,10.20881 -1.87002,-3.19866 -2.09515,-7.15184 -0.14161,-9.19927 1.95354,-2.06514 5.2397,-1.35668 7.33849,0.24442 -0.62455,-1.7853 -2.45464,-4.031096 -5.19613,-4.183413 l -0.004,0 c 5.17797,-2.600022 11.05676,-4.062977 17.27686,-4.062977 1.16196,0 2.32029,0.04959 3.4532,0.148775 l 0,0 c 1.8083,0.708453 4.46264,3.195123 5.70086,4.743095 0,0 0.0871,-1.82427 -0.95136,-4.027558 6.73573,1.601103 9.94927,4.275518 11.29641,5.564898 0.27597,2.8409 1.14744,4.54473 2.2985,7.24393 -2.1823,-2.38395 -7.66529,-6.23084 -10.28333,-7.15183 0,0 -0.21423,2.46188 -1.11475,3.64499 -5.21429,-3.66978 -7.77423,-4.59432 -7.77423,-4.59432 -5.72264,0.80055 -9.4046,2.95425 -11.40534,4.64746 l 1.74293,1.44877 c -3.44956,1.03435 -5.68996,3.92483 -5.68996,3.92483 0.0254,0.0532 3.08282,0.47821 3.08282,0.47821 0,0 -0.31228,3.5033 4.18305,5.69951 3.85262,1.88094 9.39007,-0.45341 14.60436,1.58693 -3.42777,-3.86106 -5.7989,-5.58615 -5.7989,-5.58615 0,0 -1.36167,-0.27629 -2.32028,-0.26922 -1.19827,0.007 -2.98478,0.23734 -4.94195,-0.50654 -0.93683,-0.35777 -2.0298,-0.98828 -2.88674,-1.51254 0,0 2.40743,-2.41229 5.92598,-2.94363 0,0 3.1736,0.8714 5.68634,2.68504 1.67031,-1.58693 3.41325,-1.53734 3.41325,-1.53734 0,0 -1.72842,1.57276 -1.20553,3.4785 2.5091,2.18204 5.23244,5.30631 5.23244,5.30631 2.77417,-1.48067 8.80546,-1.14061 10.04367,0.26213 -1.56864,-1.9872 -3.83083,-3.64499 -5.58103,-5.06189 -0.21423,-0.74388 -2.1242,-3.33681 -2.44737,-3.57769 0,0 1.81556,0.54551 3.43867,1.96596 0.46478,-0.64824 1.33625,-1.3071 2.52363,-1.59756 1.22005,0.99891 1.43792,2.53271 1.40524,2.78776 -0.5483,0.64115 -1.09297,0.90328 -1.09297,0.90328 l 2.94121,3.10656 0.29412,-2.22809 c 6.77567,9.44014 10.46852,20.36448 5.71901,34.09784 M 13.69195,7.197881 c 3.90709,1.746337 6.41619,3.949626 6.87371,4.286141 -0.20697,-0.984749 -0.97677,-5.7243 -1.41977,-8.667921 2.27671,1.540885 7.55999,5.118572 9.2993,6.280434 0.70807,-2.1289 3.1627,-9.082366 3.1627,-9.082366 0,0 4.43723,7.0066 5.19613,8.143667 C 37.72996,7.212051 43.03139,1.455872 44.40396,0 c 0.22876,3.312017 0.54103,8.048026 0.62092,8.760021 0.26507,-0.350685 2.29487,-3.12782 5.69722,-5.685335 -1.47423,2.833811 -2.17867,6.744471 -2.49094,9.88646 -3.34789,-0.910362 -6.88097,-1.399194 -10.51936,-1.399194 -6.9899,0 -13.55496,1.792386 -19.2304,4.941459 -1.03124,-3.035721 -2.64709,-6.811775 -4.78945,-9.30553"
     style="fill:#3d195b" /></svg>