<svg xmlns="http://www.w3.org/2000/svg" xmlns:xlink="http://www.w3.org/1999/xlink" viewBox="0 0 233.108 233.575"><title>Houston Astros primary dark logo</title><defs><path id="a" d="M0 0h233.108v233.575H0z"/></defs><clipPath id="b"><use xlink:href="#a" overflow="visible"/></clipPath><path d="M223.538 116.788c0-6.47-.573-12.8-1.684-18.946 1.11 6.146 1.684 12.487 1.684 18.957v-.012z" clip-path="url(#b)" fill="#FFF"/><path d="M116.55 9.795C57.466 9.795 9.57 57.697 9.57 116.8c0 59.08 47.896 106.99 106.98 106.99 59.082 0 106.99-47.91 106.99-106.99 0-6.47-.574-12.812-1.685-18.958-8.938-50.048-52.682-88.047-105.304-88.047" clip-path="url(#b)" fill="#002D62"/><path d="M116.55 0C52.183 0 0 52.29 0 116.8c0 64.475 52.182 116.775 116.55 116.775 64.376 0 116.558-52.3 116.558-116.776C233.108 52.29 180.926 0 116.55 0m0 228.18c-61.515 0-111.406-49.865-111.406-111.38C5.144 55.26 55.036 5.385 116.55 5.385c61.522 0 111.41 49.875 111.41 111.413 0 61.515-49.888 111.38-111.41 111.38" clip-path="url(#b)" fill="#002D62"/><path d="M116.55 5.386c-61.525 0-111.4 49.875-111.4 111.402s49.875 111.39 111.4 111.39c61.522 0 111.398-49.863 111.398-111.39S178.072 5.386 116.55 5.386M223.54 116.788v.01c0 59.08-47.907 106.993-106.988 106.993-59.086 0-106.987-47.91-106.987-107.002S57.465 9.795 116.55 9.795c52.624 0 96.368 38 105.305 88.047 1.11 6.147 1.683 12.477 1.683 18.946" clip-path="url(#b)" fill="#EB6E1F"/><path d="M154.98 184.472l-6.797 3.422-1.174 3.615 7.734 15.34 3.604 1.17 6.797-3.422 1.18-3.593-7.74-15.342-3.605-1.19zm7.188 17.584l-4.114 2.07-.746-.246-6.4-12.66.247-.76 4.12-2.082.75.246 6.4 12.68-.257.752zM96.157 198.602l2.655.428 1.234-2.478 2.188.365-2.365 15.202-1.6.47-.444 2.79 6.587 1.03.428-2.8-1.388-.91 2.36-15.236 2.19.333.423 2.714 2.68.43.946-6.17-14.938-2.316M74.75 185.792l-3.467 6.908 1.19 3.606 5.34 2.65.245.772-2.113 4.216-.757.246-4.57-2.295.204-2.22-2.43-1.235-2.563 5.118 9.064 4.56 3.604-1.202 3.465-6.92-1.196-3.583-5.33-2.682-.25-.75 2.12-4.238.75-.236 4.576 2.285-.214 2.232 2.424 1.224 2.564-5.107-9.08-4.54M180.444 176.255l-4.254 4.205h-.8l-3.32-3.38.01-.804 3.654-3.573 2.032.923 1.943-1.92-4.01-4.055-7.22 7.103-.025 3.808 5.417 5.494 3.798.033 4.248-4.174h.783l3.328 3.347v.794l-3.643 3.594-2.043-.912-1.948 1.9 4.002 4.075 7.23-7.122.027-3.808-5.423-5.47M137.53 210.993l-2.666-5.558 1.872-2.596-1.195-7.64-3.057-2.22-11.527 1.824.44 2.8 1.61.46 2.414 15.278-1.39.934.445 2.8 6.566-1.05-.434-2.79-1.604-.45-.927-5.858 3.25-.504 2.554 5.32-1.16.805.45 2.788 6.572-1.04-.44-2.79-1.772-.515zm-5.048-8.422l-4.978.762-.912-5.76 4.968-.784.638.472.74 4.667-.456.644zM59.413 169.592l-15.567 11.36-1.56-.557-1.986 2.017 4.763 4.678 1.974-2.028-.584-1.556 1.984-1.437 4.125 4.054-1.405 2.006-1.556-.547-1.973 2.017 4.752 4.656 1.984-2.017-.584-1.546 11.07-15.78-5.437-5.322zm-8.014 10.32l7.664-5.61 1.062 1.05-5.46 7.79-3.267-3.23zM48.057 73.575l2.237 1.738 4.087-5.257-2.235-1.727-1.487.76-4.683-3.637 3.433-4.42 4.678 3.648-.386 1.632 2.247 1.738 4.088-5.258-2.23-1.738-1.503.774-12.214-9.495.38-1.63-2.237-1.74-4.08 5.247 2.23 1.738 1.487-.76 4.688 3.624-3.433 4.432-4.688-3.65.386-1.618-2.232-1.75-4.103 5.258 2.247 1.738 1.486-.752 12.22 9.484M163.932 55.014l3.74-.687 9.778-14.118-.67-3.724-6.26-4.345-3.728.688-9.79 14.12.688 3.743 6.242 4.324zm4.994-18.892l.767-.14 3.803 2.618.13.783-8.08 11.672-.777.14-3.793-2.63-.134-.77 8.083-11.673zM69.084 55.09l6.255-4.356.658-3.7-9.795-14.14-3.733-.678-6.24 4.324-.69 3.733 9.81 14.13 3.734.687zM59.52 38.675l3.782-2.628.793.14 8.08 11.65-.135.794-3.787 2.62-.778-.12-8.1-11.65.145-.805zM81.454 26.402l4.876 15.59 3.352 1.737 7.264-2.255 1.75-3.368-4.878-15.59 1.234-1.114-.853-2.714-6.347 1.984.853 2.713 1.653.205 4.44 14.16-.376.71-4.382 1.36-.72-.342-4.43-14.16 1.245-1.106-.864-2.725-6.34 1.994.847 2.693M137.337 38.89l-.836 2.693 6.346 1.974.843-2.714-1.235-1.116 4.586-14.687 2.11.665.026 2.747 2.574.804 1.862-5.965-14.44-4.493-1.85 5.954 2.57.794 1.58-2.253 2.115.667-4.58 14.708M122.96 36.347v-7.713l-2.675-2.692h-5.97l-.554-.55v-4.73l.554-.557h5.113l.804 2.082h2.73V16.49H112.82l-2.687 2.67v7.736l2.688 2.66h5.965l.563.57v4.742l-.563.557h-5.113l-.793-2.092h-2.746v5.697h10.155M196.584 56.313l-2.22 1.76.374 1.62-8.325 6.48 7.773-12.95-3.545-4.528-2.236 1.738.386 1.62-12.21 9.516-1.48-.762-2.247 1.75 4.104 5.256 2.242-1.75-.4-1.64 8.327-6.48-7.757 12.95 2.602 3.335 14.988-11.695 1.48.783 2.247-1.76" clip-path="url(#b)" fill="#FFF"/><path d="M154.228 94.817h25.222c-8.958-25.652-33.155-44.125-61.735-44.618l10.766 33.16h25.748v11.457zM78.88 155.184v-11.447l9.038-3.24-2.097.73 2.098-.73v-18.345l-34.92-25.384c-1.99 6.34-3.068 13.035-3.068 20.03 0 21.746 10.428 41.035 26.558 53.2l4.8-14.814h-2.41zM78.88 83.36h25.742l10.782-33.16c-28.586.48-52.783 18.965-61.752 44.617H78.88V83.36zM121.48 146.558l-4.93-3.593-4.934 3.593v8.626H99.76L77.93 171.04c10.878 7.79 24.213 12.37 38.62 12.37 14.41 0 27.738-4.59 38.632-12.37l-21.836-15.856H121.48v-8.626zM180.11 96.8l-34.898 25.374v18.324l9.017 3.24v11.447h-2.415L156.632 170c16.12-12.166 26.552-31.465 26.552-53.2 0-6.986-1.084-13.69-3.073-20" clip-path="url(#b)" fill="#002D62"/><path d="M116.55 188.238c-39.467 0-71.475-31.97-71.475-71.44 0-39.48 32.008-71.482 71.476-71.482 39.476 0 71.473 32.002 71.473 71.483 0 39.467-31.997 71.438-71.472 71.438" clip-path="url(#b)" fill="#002D62"/><path d="M116.546 45.316c-39.475 0-71.472 32.002-71.472 71.483 0 39.467 31.997 71.45 71.472 71.45 39.485 0 71.47-31.983 71.47-71.45 0-39.48-31.985-71.484-71.47-71.484M156.632 170l-4.817-14.815h-18.468l21.842 15.857c-10.9 7.788-24.23 12.37-38.643 12.37-14.398 0-27.738-4.582-38.622-12.37l21.843-15.857H88.282l-12.697 17.573.896-2.758c-16.124-12.166-26.55-31.454-26.55-53.2 0-6.986 1.07-13.7 3.067-20.02l34.92 25.393v-4.42L61.253 98.357l-10.986-3.54h3.385c8.97-25.653 33.166-44.137 61.752-44.62l1.143-3.55v65.29h13.973V98.046l-9.038-3.23V83.36h7.006L117.706 50.2c28.59.492 52.783 18.966 61.736 44.617h3.406l-10.975 3.55h-26.66v23.786l34.9-25.352c1.99 6.31 3.067 13.015 3.067 20 0 21.734-10.43 41.034-26.548 53.2" clip-path="url(#b)" fill="#EB6E1F"/><path clip-path="url(#b)" fill="#EB6E1F" d="M130.52 140.497v-13.893h-21.597l-6.335 8.776v5.117l9.022 3.24v2.82l4.94-3.592 4.93 3.593v-2.82"/><path clip-path="url(#b)" fill="#F4911E" d="M145.21 98.045v.322h26.662l10.974-3.55h-28.611M111.616 83.36v11.457l-9.028 3.228v13.883h13.963V46.646l-1.146 3.552-10.783 33.16M102.588 135.38l6.33-8.765h-6.33M85.82 141.238l2.098-.74-2.098.73M76.487 170l-.906 2.757 12.708-17.573h-6.99M78.88 94.817H50.26l10.98 3.54 26.676 19.397v-19.71"/><path clip-path="url(#b)" fill="#FFF" d="M78.88 143.737v11.447l2.9-2.93H108.7v-6.49l2.918-2.027-9.028-3.24-2.918 2.038v-18.85h33.768l-2.92 2.92v13.892l-9.03 3.24V155.184l2.916-2.93h26.912v-6.49l2.912-2.027-9.022-3.24-2.923 2.038v-46.55l9.033-3.24v-6.47l2.912-2.916H121.488v11.457l2.916-2.07 9.034 3.238-2.92 2.06v13.883h-27.93l-2.918 2.918v-18.86l9.028-3.24v-6.47l2.918-2.917H78.88v11.457l2.9-2.07 9.044 3.238-2.906 2.06v42.452"/><path clip-path="url(#b)" fill="#E7E9EA" d="M154.228 94.817V83.36l-2.912 2.927v6.46l-9.033 3.238v46.55l2.928-2.038V98.045M154.228 143.737l-2.912 2.028v6.49h-26.912l-2.923 2.93h32.748M102.588 126.615h27.93l2.92-2.93H99.67v18.86l2.918-2.048v-5.117M111.616 146.558v-2.82l-2.912 2.027v6.49H81.78l-2.906 2.93h32.742M90.824 95.985l-9.043-3.24-2.896 2.072 9.034 3.228M124.404 92.746l-2.923 2.07 9.034 3.23 2.924-2.06M111.616 94.817V83.36l-2.912 2.927v6.46l-9.034 3.238v18.86l2.918-2.906V98.044"/><path d="M192.67 216.28h-2.416v6.524h-1.614v-6.523h-2.387v-1.426h6.416v1.427zm10.866 6.525h-1.62v-6.32h-.053l-2.296 6.32h-1.556l-2.23-6.32h-.043v6.32h-1.615v-7.95h2.806l1.86 5.204h.033l1.92-5.205h2.796v7.95z" clip-path="url(#b)" fill="#002D62"/></svg>